<svg width="374" height="329" viewBox="0 0 374 329" fill="none" xmlns="http://www.w3.org/2000/svg">
<path d="M8.15392e-05 225.824C8.15392e-05 229.506 2.98485 232.491 6.66675 232.491C10.3486 232.491 13.3334 229.506 13.3334 225.824C13.3334 222.142 10.3486 219.157 6.66675 219.157C2.98485 219.157 8.15392e-05 222.142 8.15392e-05 225.824ZM52.5001 7.27734C52.5001 10.9592 55.4848 13.944 59.1667 13.944C62.8486 13.944 65.8334 10.9592 65.8334 7.27734C65.8334 3.59545 62.8486 0.610677 59.1667 0.610677C55.4848 0.610677 52.5001 3.59545 52.5001 7.27734ZM6.66675 225.824L7.88217 226.116L34.1322 116.843L32.9167 116.551L31.7013 116.259L5.45133 225.532L6.66675 225.824ZM32.9167 116.551L34.1322 116.843L60.3822 7.56932L59.1667 7.27734L57.9513 6.98537L31.7013 116.259L32.9167 116.551Z" fill="#BDEEE7"/>
<path d="M155.058 321.667C155.058 325.348 158.043 328.333 161.725 328.333C165.407 328.333 168.392 325.348 168.392 321.667C168.392 317.985 165.407 315 161.725 315C158.043 315 155.058 317.985 155.058 321.667ZM360.175 271.608C360.175 275.29 363.159 278.275 366.841 278.275C370.523 278.275 373.508 275.29 373.508 271.608C373.508 267.927 370.523 264.942 366.841 264.942C363.159 264.942 360.175 267.927 360.175 271.608ZM161.725 321.667L162.021 322.881L264.58 297.852L264.283 296.637L263.987 295.423L161.429 320.452L161.725 321.667ZM264.283 296.637L264.58 297.852L367.138 272.823L366.841 271.608L366.545 270.394L263.987 295.423L264.283 296.637Z" fill="#BDEEE7"/>
<path d="M168.164 321.667C168.164 325.349 165.179 328.334 161.497 328.334C157.815 328.334 154.831 325.349 154.831 321.667C154.831 317.985 157.815 315 161.497 315C165.179 315 168.164 317.985 168.164 321.667ZM13.3335 225.565C13.3335 229.247 10.3487 232.232 6.66681 232.232C2.98491 232.232 0.000137329 229.247 0.000137329 225.565C0.000137329 221.884 2.98491 218.899 6.66681 218.899C10.3487 218.899 13.3335 221.884 13.3335 225.565ZM161.497 321.667L160.838 322.729L83.4229 274.678L84.0821 273.616L84.7413 272.554L162.157 320.605L161.497 321.667ZM84.0821 273.616L83.4229 274.678L6.0076 226.627L6.66681 225.565L7.32602 224.503L84.7413 272.554L84.0821 273.616Z" fill="#BDEEE7"/>
<path d="M310.019 32.3065C310.019 35.9884 307.035 38.9732 303.353 38.9732C299.671 38.9732 296.686 35.9884 296.686 32.3065C296.686 28.6246 299.671 25.6399 303.353 25.6399C307.035 25.6399 310.019 28.6246 310.019 32.3065ZM65.8334 6.66699C65.8334 10.3489 62.8486 13.3337 59.1667 13.3337C55.4848 13.3337 52.5001 10.3489 52.5001 6.66699C52.5001 2.98509 55.4848 0.00032568 59.1667 0.00032568C62.8486 0.00032568 65.8334 2.98509 65.8334 6.66699ZM303.353 32.3065L303.222 33.5497L181.129 20.7299L181.26 19.4868L181.39 18.2436L303.483 31.0634L303.353 32.3065ZM181.26 19.4868L181.129 20.7299L59.0362 7.91016L59.1667 6.66699L59.2973 5.42383L181.39 18.2436L181.26 19.4868Z" fill="#BDEEE7"/>
<path d="M373.715 270.947C373.715 274.628 370.73 277.613 367.048 277.613C363.366 277.613 360.381 274.628 360.381 270.947C360.381 267.265 363.366 264.28 367.048 264.28C370.73 264.28 373.715 267.265 373.715 270.947ZM310.019 32.3066C310.019 35.9885 307.035 38.9733 303.353 38.9733C299.671 38.9733 296.686 35.9885 296.686 32.3066C296.686 28.6247 299.671 25.64 303.353 25.64C307.035 25.64 310.019 28.6247 310.019 32.3066ZM335.097 153.789L333.891 154.118L333.888 154.105L335.097 153.789ZM367.048 270.947L365.842 271.275L333.891 154.118L335.097 153.789L336.303 153.46L368.254 270.618L367.048 270.947ZM335.097 153.789L333.888 154.105L302.143 32.6227L303.353 32.3066L304.562 31.9906L336.306 153.473L335.097 153.789Z" fill="#BDEEE7"/>
</svg>
