<svg width="365" height="360" viewBox="0 0 365 360" fill="none" xmlns="http://www.w3.org/2000/svg">
<path d="M40.2405 134.85C38.9183 138.287 40.6322 142.144 44.0685 143.466C47.5049 144.788 51.3624 143.075 52.6845 139.638C54.0067 136.202 52.2928 132.344 48.8565 131.022C45.4201 129.7 41.5626 131.414 40.2405 134.85ZM190.964 35.7536C189.642 39.1899 191.356 43.0474 194.792 44.3695C198.228 45.6917 202.086 43.9778 203.408 40.5415C204.73 37.1052 203.016 33.2477 199.58 31.9255C196.143 30.6034 192.286 32.3173 190.964 35.7536ZM46.4625 137.244L47.1492 138.289L122.511 88.7404L121.824 87.6959L121.137 86.6514L45.7758 136.2L46.4625 137.244ZM121.824 87.6959L122.511 88.7404L197.873 39.192L197.186 38.1475L196.499 37.1031L121.137 86.6514L121.824 87.6959Z" fill="#BDEEE7"/>
<path d="M91.8545 293.344C90.5323 296.781 92.2462 300.638 95.6825 301.96C99.1188 303.282 102.976 301.569 104.298 298.132C105.621 294.696 103.907 290.838 100.47 289.516C97.0341 288.194 93.1766 289.908 91.8545 293.344ZM253.298 316.662C251.975 320.098 253.689 323.955 257.126 325.277C260.562 326.6 264.419 324.886 265.742 321.449C267.064 318.013 265.35 314.156 261.914 312.833C258.477 311.511 254.62 313.225 253.298 316.662ZM98.0765 295.738L97.8978 296.975L178.619 308.634L178.798 307.397L178.977 306.16L98.2551 294.501L98.0765 295.738ZM178.798 307.397L178.619 308.634L259.341 320.293L259.52 319.055L259.698 317.818L178.977 306.16L178.798 307.397Z" fill="#BDEEE7"/>
<path d="M104.298 298.132C102.976 301.568 99.1189 303.282 95.6825 301.96C92.2462 300.638 90.5323 296.78 91.8545 293.344C93.1766 289.908 97.0341 288.194 100.47 289.516C103.907 290.838 105.621 294.696 104.298 298.132ZM52.8431 139.226C51.521 142.662 47.6635 144.376 44.2272 143.054C40.7909 141.732 39.077 137.874 40.3991 134.438C41.7213 131.002 45.5788 129.288 49.0151 130.61C52.4514 131.932 54.1653 135.79 52.8431 139.226ZM98.0765 295.738L96.8873 296.123L71.1596 216.67L72.3488 216.285L73.538 215.9L99.2657 295.353L98.0765 295.738ZM72.3488 216.285L71.1596 216.67L45.4319 137.217L46.6211 136.832L47.8103 136.447L73.538 215.9L72.3488 216.285Z" fill="#BDEEE7"/>
<path d="M358.51 135.704C357.188 139.141 353.331 140.854 349.894 139.532C346.458 138.21 344.744 134.353 346.066 130.916C347.389 127.48 351.246 125.766 354.682 127.088C358.119 128.41 359.833 132.268 358.51 135.704ZM203.567 40.129C202.245 43.5654 198.388 45.2793 194.951 43.9571C191.515 42.635 189.801 38.7775 191.123 35.3411C192.445 31.9048 196.303 30.1909 199.739 31.5131C203.175 32.8352 204.889 36.6927 203.567 40.129ZM352.288 133.31L351.632 134.374L274.161 86.5866L274.817 85.5227L275.473 84.4588L352.945 132.246L352.288 133.31ZM274.817 85.5227L274.161 86.5866L196.689 38.799L197.345 37.7351L198.001 36.6712L275.473 84.4588L274.817 85.5227Z" fill="#BDEEE7"/>
<path d="M253.298 316.662C251.976 320.098 253.69 323.956 257.126 325.278C260.563 326.6 264.42 324.886 265.742 321.45C267.064 318.013 265.351 314.156 261.914 312.834C258.478 311.512 254.62 313.225 253.298 316.662ZM346.066 130.917C344.744 134.353 346.458 138.211 349.894 139.533C353.331 140.855 357.188 139.141 358.51 135.705C359.833 132.269 358.119 128.411 354.682 127.089C351.246 125.767 347.389 127.481 346.066 130.917ZM259.52 319.056L260.639 319.614L307.023 226.742L305.904 226.183L304.786 225.625L258.402 318.497L259.52 319.056ZM305.904 226.183L307.023 226.742L353.407 133.87L352.288 133.311L351.17 132.752L304.786 225.625L305.904 226.183Z" fill="#BDEEE7"/>
</svg>
